<?xml version="1.0" encoding="utf-8"?>
<!-- Generator: Adobe Illustrator 22.0.1, SVG Export Plug-In . SVG Version: 6.00 Build 0)  -->
<svg version="1.1" id="Layer_1" xmlns="http://www.w3.org/2000/svg" xmlns:xlink="http://www.w3.org/1999/xlink" x="0px" y="0px"
	 viewBox="0 0 200 150" style="enable-background:new 0 0 200 150;" xml:space="preserve">
<style type="text/css">
	.st0{fill:#EC1C24;}
	.st1{fill:#ED2524;}
	.st2{fill:#FFFFFF;}
</style>
<g>
	<rect x="74.7" y="49.8" class="st0" width="1.6" height="51.4"/>
	<path class="st0" d="M174.6,75.5v10.9c-1.6,0.6-3.8,0.9-6.1,0.9c-8,0-13-4.4-13-11.6c0-7.3,5.3-11.8,14.1-11.8
		c3.8,0,7.3,0.8,10.8,2.3l0.8,0.3v-6.9l-0.3-0.1c-3.7-1.2-7.6-1.8-11.6-1.8c-13.1,0-22.3,7.6-22.3,18.5c0,10.4,8.5,17.5,21.2,17.5
		c5.1,0,10.6-1,14.6-2.8l0.3-0.2V75.5H174.6z M143.2,84.9c-3.3,1.6-6.2,2.3-9.5,2.3c-7.7,0-12.7-4.6-12.7-11.6
		c0-7.2,5.1-11.8,12.9-11.8c3.8,0,5.9,1,8.9,2.3l0.8,0.3v-6.9l-0.3-0.2c-2.6-1-5.1-1.8-9.4-1.8c-12.4,0-21.5,7.7-21.5,18.2
		c0,10.9,7.9,17.6,20.5,17.6c4,0,6.4-0.6,10.9-2.8l0.3-0.2l-0.2-6L143.2,84.9z M97.8,72.1c-3.5-1.5-6.5-2.8-6.5-5.2
		c0-2.8,3.4-3.2,4.9-3.2c3,0,6.1,0.8,9.2,2.1l0.8,0.3v-6.8l-0.3-0.2c-2.6-1.1-6.2-1.8-9.9-1.8c-9.2,0-13.4,5.1-13.4,9.9
		c0,6.1,5.4,8.5,10.3,10.6c3.7,1.6,6.8,3,6.8,5.6c0,2.6-3.2,3.5-6.1,3.5c-3.6,0-7.6-2.1-9.7-3.3l-0.8-0.5V90l0.3,0.2
		c2.9,1.8,5.6,3.2,10.4,3.2c8.8,0,14.7-4.1,14.7-10.3C108.4,76.7,102.6,74.2,97.8,72.1"/>
	<polygon class="st1" points="39,71.9 38.7,72.1 38.6,72.6 39.2,72 	"/>
	<polyline class="st1" points="38.4,71.6 38.4,71.1 38.8,70.8 38.9,70.9 	"/>
	<polygon class="st2" points="44.9,46.8 44.5,47 20,61 20,89.5 44.9,103.7 69.8,89.5 69.8,61 	"/>
	<path class="st1" d="M62.2,74.1L46.4,49.5c4.3,2.4,16.7,9.5,20.7,11.9L62.2,74.1z M61.6,75.6C61.1,76.4,46,99.2,45,101
		c-1.2-1.7-16.1-24.6-16.6-25.3c0.4-0.8,15.4-24,16.5-25.7C46,51.7,61.1,74.9,61.6,75.6 M27.6,74.1l-4.8-12.7
		c4-2.3,16.4-9.4,20.7-11.9L27.6,74.1z M26.6,75.6L26.6,75.6l-5,12.9V62.2L26.6,75.6z M27.5,77.2l15.9,24.1
		c-4.3-2.5-16.8-9.6-20.7-11.9L27.5,77.2z M62.3,77.2l4.8,12.3c-3.9,2.3-16.4,9.4-20.7,11.9L62.3,77.2z M63.3,75.6L63.3,75.6l5-13.5
		v26.4L63.3,75.6z"/>
	<path class="st2" d="M36.2,74.1c-0.3,0.4-1.4,1.8-2.7,2.7c0.6,0,1.8-0.3,3.2-1.8c0-0.2,0-0.3,0-0.4C36.6,74.4,36.4,74.2,36.2,74.1"
		/>
	<path class="st2" d="M37.9,79.3c-0.3,0-0.9,0.4-0.8,0.8c0.1,0.3,0.3,0.3,0.3,0.8c-0.1,0.3-0.2,0.7-0.6,0.5
		c-0.5-0.2-0.4-1.6-0.3-2.3c0.2-1,0.3-2.3,0.1-3.7c-0.8,0.8-1.5,1.2-2,1.3c0.1,0.8,0.1,1.7,0.2,2.2c0.1,0.7,0,3.4,2,3.6
		c0.8,0.1,1.5-0.3,1.8-1.3C38.6,80.6,38.5,79.3,37.9,79.3"/>
	<path class="st2" d="M43.5,78.7c-0.1,0.3-0.3,0.8-0.3,0.8s0.3,0.3,0.8,0.5c0,0-0.1-1.9-0.1-2.2C43.9,77.7,43.6,78.5,43.5,78.7"/>
	<path class="st2" d="M54.1,80.6c-0.2,0.3-0.3,1-0.3,1.2c0,0.6,0,1.2,0.2,1.5c0.2,0.6,0.1,0.8,0.1,0.8c0.3-0.2,0.2-0.7,0.1-1.2
		c0-0.6,0.1-1.7,0.3-2.3c0.3-0.6,0.1-1,0.1-1C54.6,80.2,54.3,80.2,54.1,80.6"/>
	<path class="st2" d="M43.5,84c-0.2,0-0.3,0.3-0.3,0.6c0.3,0,0.5-0.1,0.7-0.2C43.9,84.3,43.7,84,43.5,84"/>
	<path class="st2" d="M43.2,83.1c-0.3-0.3-1.2-1.2-2.1-1.5c0,0,0.1,1.2,0,1.6c-0.1,0.6-0.2,1-0.1,1.2c0.1-0.2,0.3-0.4,0.5-0.4
		c0.1,0,0.2,0,0.3,0.2c0.1,0.1,0.2,0.2,0.2,0.3c0.1-0.2,0.3-0.4,0.5-0.4c0.3,0,0.4,0.2,0.5,0.4c0.1-0.3,0.2-0.4,0.4-0.5
		c0.3,0,0.6,0.3,0.7,0.5c0.2-0.3-0.1-0.8-0.1-1.3C44,83.1,43.5,83.3,43.2,83.1"/>
	<path class="st2" d="M41.6,84.1c-0.1,0-0.3,0.2-0.3,0.4c0.1,0.1,0.2,0.1,0.3,0.1c0.1,0,0.2,0,0.3,0c0-0.2-0.1-0.3-0.2-0.4
		L41.6,84.1z"/>
	<path class="st2" d="M42.6,84.1c-0.2,0-0.3,0.3-0.4,0.5c0.3,0,0.5,0,0.8,0C42.9,84.4,42.8,84.1,42.6,84.1"/>
	<path class="st2" d="M44.5,80.9c-0.1,0.1,0.2,0.3,0.4,0.6C45,81.2,45,81,45,80.8C44.8,80.7,44.5,80.7,44.5,80.9"/>
	<path class="st2" d="M44.1,81.6c-0.1,0.2,0.1,0.4,0.3,0.6c0.1-0.1,0.2-0.2,0.3-0.3c0.1-0.1,0.1-0.2,0.2-0.2
		C44.5,81.6,44.2,81.5,44.1,81.6"/>
	<path class="st2" d="M43.7,82.2L43.7,82.2c-0.1,0.2,0,0.3,0.1,0.5c0.2-0.1,0.3-0.2,0.4-0.3C44,82.2,43.9,82.2,43.7,82.2"/>
	<path class="st2" d="M53.3,84.1c-0.1,0-0.3,0.3-0.3,0.6c0.3,0,0.5-0.1,0.7-0.2C53.6,84.3,53.5,84,53.3,84.1"/>
	<path class="st2" d="M55.8,77.2c0,0,0.1-1-0.3-4.1c-0.3-3.1-2.5-4.8-3.9-5.9c-1.4-1.2-5.4-2-6.6-2.1c-1.2-0.1-3.3,0.4-4.1,0.5
		c-0.8,0.2-1.9-0.3-3.3-0.2c-0.9,0.1-1.7,1.3-1.7,1.3s-0.8-0.1-1.3,1c-0.4,1.1-0.5,1.5-0.6,2c-0.1,0.5-0.1,1.8,0,2.3
		c0,0-0.1,1.3,0,2.6c0,0-0.1,0.4-1.3,1.3c1-0.1,1.3-0.5,1.3-0.5c0,0.2,0,0.3,0.1,0.3c1-0.9,1.8-1.9,1.8-1.9l0.1-0.2l0.8,0.7
		c0,0-0.1,0.3,0,0.8c0.1,0.3,0.1,0.4,0.1,0.4s0.3-0.2,0.5-0.6c0.1-0.5,0.3-0.7,0.5-0.8c0.3-0.3,0.7-0.3,1.1-0.6
		c0.3-0.2,0.8-0.8,0.8-1.1L40,72c0,0,0.4,0.7,0.6,0.8c0.2-0.2,0.3-0.4,0.4-0.7c0.2-0.4,0.3-0.9,0.3-1.3c0.1-0.3,0.1-0.5,0.2-0.7
		l0.2-0.4c0.2-0.4,0.5-1.1,0.5-1.8c0-0.3-0.1-0.8-0.4-1.1c-0.6-0.7-2-0.7-2-0.7s1.3-0.5,2.3,0.5c1,1,0.3,2.4-0.1,3.2l-0.2,0.3
		c-0.1,0.2-0.1,0.3-0.2,0.6c-0.1,0.4-0.2,1-0.3,1.4c-0.2,0.4-0.6,0.9-0.6,0.9l-0.2,0.2c0,0-0.3-0.5-0.5-0.8
		c-0.2,0.3-0.4,0.7-0.8,0.9l0.8,1.3c0.2-0.5,0.3-0.7,0.3-0.7c-0.2,0.8-0.5,3.8-0.6,4.9c-0.2,1.2,0.4,1.5,0.8,1.6
		c0.3,0.1,1.7,1,2.3,1.5c0.3,0.2,0.4,0.3,0.6,0.4c-0.1-0.2-0.2-0.4-0.1-0.6c0-0.1,0.1-0.2,0.3-0.2c0.1,0,0.2,0,0.3,0
		c-0.1-0.1-0.2-0.3-0.2-0.4c0-0.1,0-0.1,0.1-0.2C44,81,44.2,81,44.4,81c-0.1-0.2-0.2-0.3-0.2-0.4v-0.1c0.1-0.2,0.3-0.3,0.4-0.3
		c-0.3-0.2-0.5-0.3-0.8-0.3c-0.3-0.2-1.3-0.7-1.1-1c0.2-0.3,0.8-1.6,0.8-2c0.3-1.3,0.9-1.8,0.9-1.8c-0.3,0.6-0.3,0.9-0.3,0.9
		c2.4,0.8,4.4,0.5,4.4,0.5c-0.3-0.9,0-1.1,0-1.1c0.2,1.8,1.8,3.3,2.3,4.2c0.4,0.8,0,2.6-0.3,3.7c-0.1,0.2,0,0.3,0.1,0.5
		c0.1-0.2,0.3-0.5,0.6-0.5c0.1,0,0.2,0.1,0.3,0.2c0.1,0.1,0.1,0.2,0.2,0.3c0.1-0.2,0.3-0.3,0.5-0.3c0.3,0,0.4,0.2,0.4,0.4
		c0.1-0.2,0.3-0.4,0.4-0.4c0.3,0,0.5,0.3,0.6,0.4c0.1-0.1,0.1-0.3,0-0.6c-0.2-0.6-0.3-1.2-0.3-1.7c0-0.3,0.1-1,0.3-1.6
		c0.3-0.7,0.8-1,0.6-1.5c-0.1-0.4-0.3-1.6-0.1-2.3c0.2-0.8,0.7-3,0.7-3c0.5,1.1,0.4,3.7,0.4,3.7c-0.1,1.8,0.5,2.4,0.5,2.4
		S56,78.7,56,78C56.1,77.7,55.8,77.2,55.8,77.2 M37.9,69.8c-0.1,0.2-0.4,0.5-0.4,0.5s-0.2-0.7,0.2-1c0.3-0.3,0.8-0.2,0.8-0.2
		S38,69.6,37.9,69.8 M41.6,67.8c0.4,0.8-0.3,1.6-0.3,1.6s0.1-0.9,0-1.3c-0.1-0.3-0.6-0.7-1.2-0.8C40.3,67.2,41.2,67,41.6,67.8"/>
	<path class="st2" d="M52.4,84.1c-0.2,0-0.3,0.3-0.4,0.5h0.5h0.3C52.6,84.4,52.6,84.1,52.4,84.1"/>
	<path class="st2" d="M51.4,84c-0.1,0-0.3,0.3-0.4,0.4c0.2,0.1,0.4,0.2,0.7,0.2C51.6,84.4,51.6,84.2,51.4,84L51.4,84z"/>
</g>
</svg>
